<svg width="20" height="20" viewBox="0 0 20 20" fill="none" xmlns="http://www.w3.org/2000/svg">
<path d="M17.653 2.5202C17.646 2.5075 17.636 2.4975 17.624 2.4921C16.198 1.7893 14.692 1.2882 13.146 1.0012C13.132 0.9984 13.117 1.0004 13.104 1.007C13.092 1.0136 13.081 1.0243 13.074 1.0378C12.869 1.4373 12.683 1.8476 12.516 2.2673C10.85 1.9955 9.154 1.9955 7.487 2.2673C7.319 1.8466 7.13 1.4361 6.921 1.0378C6.913 1.0246 6.903 1.0141 6.89 1.0076C6.877 1.0011 6.863 0.9989 6.849 1.0012C5.302 1.2876 3.797 1.7888 2.371 2.4921C2.358 2.4977 2.348 2.5072 2.341 2.5193C-0.511 7.0932 -1.292 11.5546 -0.909 15.9607C-0.908 15.9715 -0.905 15.982 -0.9 15.9915C-0.895 16.001 -0.888 16.0093 -0.88 16.016C0.78 17.3365 2.638 18.3444 4.613 18.9968C4.627 19.0013 4.642 19.0011 4.656 18.9962C4.669 18.9913 4.681 18.9821 4.69 18.9696C5.114 18.3498 5.49 17.6934 5.814 17.0072C5.818 16.9978 5.821 16.9875 5.821 16.9769C5.822 16.9664 5.82 16.9558 5.817 16.946C5.813 16.9362 5.808 16.9273 5.801 16.9199C5.794 16.9126 5.785 16.9069 5.776 16.9032C5.183 16.6597 4.609 16.3661 4.06 16.0252C4.05 16.0189 4.041 16.0101 4.035 15.9995C4.029 15.9888 4.026 15.9768 4.025 15.9644C4.024 15.952 4.027 15.9396 4.031 15.9283C4.036 15.917 4.044 15.9071 4.053 15.8996C4.168 15.8068 4.284 15.7103 4.394 15.6129C4.403 15.6042 4.415 15.5987 4.428 15.5968C4.44 15.595 4.453 15.597 4.465 15.6026C8.065 17.3671 11.963 17.3671 15.521 15.6026C15.532 15.5966 15.545 15.5944 15.558 15.596C15.571 15.5977 15.583 15.6032 15.593 15.6119C15.703 15.7094 15.818 15.8068 15.935 15.8996C15.944 15.9071 15.951 15.9168 15.956 15.9281C15.961 15.9393 15.963 15.9517 15.963 15.9641C15.962 15.9766 15.959 15.9886 15.953 15.9993C15.947 16.0099 15.938 16.0188 15.928 16.0252C15.38 16.369 14.806 16.6624 14.212 16.9023C14.202 16.9061 14.194 16.9119 14.187 16.9194C14.18 16.9269 14.174 16.9359 14.171 16.9458C14.167 16.9557 14.166 16.9663 14.166 16.9769C14.167 16.9874 14.17 16.9978 14.174 17.0072C14.503 17.6896 14.879 18.3451 15.297 18.9685C15.306 18.9813 15.318 18.9909 15.331 18.996C15.345 19.001 15.36 19.0013 15.374 18.9967C17.353 18.3465 19.214 17.3385 20.877 16.016C20.885 16.0096 20.891 16.0015 20.896 15.9921C20.901 15.9828 20.904 15.9724 20.905 15.9616C21.364 10.8677 20.137 6.4428 17.653 2.5202ZM6.352 13.2778C5.268 13.2778 4.375 12.2096 4.375 10.8977C4.375 9.5858 5.25 8.5175 6.352 8.5175C7.462 8.5175 8.346 9.595 8.329 10.8976C8.329 12.2096 7.453 13.2778 6.352 13.2778ZM13.662 13.2778C12.578 13.2778 11.685 12.2096 11.685 10.8977C11.685 9.5858 12.561 8.5175 13.662 8.5175C14.772 8.5175 15.656 9.595 15.639 10.8976C15.639 12.2096 14.772 13.2778 13.662 13.2778Z" fill="currentColor"/>
</svg>
