<svg width="20" height="20" viewBox="0 0 20 20" fill="none" xmlns="http://www.w3.org/2000/svg">
<path d="M9.871 0C4.2782 0 0 4.3548 0 10.0908C0 14.6772 2.8145 18.6019 6.8347 19.9832C7.3508 20.0783 7.5323 19.7516 7.5323 19.4827C7.5323 19.2263 7.5202 17.812 7.5202 16.9435C7.5202 16.9435 4.6976 17.5638 4.1048 15.7111C4.1048 15.7111 3.6452 14.5076 2.9839 14.1975C2.9839 14.1975 2.0605 13.5482 3.0484 13.5606C3.0484 13.5606 4.0524 13.6433 4.6048 14.6276C5.4879 16.2239 6.9677 15.7649 7.5444 15.4919C7.6371 14.8302 7.8992 14.3712 8.1895 14.0982C5.9355 13.8418 3.6613 13.5068 3.6613 9.5284C3.6613 8.3911 3.9677 7.8204 4.6129 7.0925C4.5081 6.8237 4.1653 5.7154 4.7177 4.2845C5.5605 4.0157 7.5 5.4011 7.5 5.4011C8.3065 5.1695 9.1734 5.0496 10.0323 5.0496C10.8911 5.0496 11.7581 5.1695 12.5645 5.4011C12.5645 5.4011 14.504 4.0115 15.3468 4.2845C15.8992 5.7195 15.5565 6.8237 15.4516 7.0925C16.0968 7.8245 16.4919 8.3952 16.4919 9.5284C16.4919 13.5192 14.1169 13.8377 11.8629 14.0982C12.2339 14.4249 12.5484 15.0453 12.5484 16.0171C12.5484 17.4108 12.5363 19.1354 12.5363 19.4745C12.5363 19.7433 12.7218 20.07 13.2339 19.9749C17.2661 18.6019 20 14.6772 20 10.0908C20 4.3548 15.4637 0 9.871 0ZM3.9194 14.2636C3.8669 14.305 3.879 14.4001 3.9476 14.4787C4.0121 14.5449 4.1048 14.5738 4.1573 14.52C4.2097 14.4787 4.1976 14.3836 4.129 14.305C4.0645 14.2388 3.9718 14.2099 3.9194 14.2636ZM3.4839 13.9287C3.4556 13.9824 3.496 14.0486 3.5766 14.0899C3.6411 14.1313 3.7218 14.1189 3.75 14.061C3.7782 14.0072 3.7379 13.9411 3.6573 13.8997C3.5766 13.8749 3.5121 13.8873 3.4839 13.9287ZM4.7903 15.4009C4.7258 15.4547 4.75 15.5788 4.8427 15.6573C4.9355 15.7524 5.0524 15.7649 5.1048 15.6987C5.1573 15.6449 5.1331 15.5209 5.0524 15.4423C4.9637 15.3472 4.8427 15.3348 4.7903 15.4009ZM4.3306 14.793C4.2661 14.8343 4.2661 14.9419 4.3306 15.037C4.3952 15.1321 4.504 15.1735 4.5565 15.1321C4.621 15.0783 4.621 14.9708 4.5565 14.8757C4.5 14.7806 4.3952 14.7392 4.3306 14.793Z" fill="currentColor"/>
</svg>
