<svg width="260" height="40" viewBox="0 0 260 40" fill="none" xmlns="http://www.w3.org/2000/svg">
<rect width="56" height="40" rx="10" fill="#E9EFF5" fill-opacity="0.43"/>
<path d="M24.6895 26.104C24.6895 26.1867 24.5968 26.2529 24.4798 26.2529C24.3468 26.2653 24.254 26.1991 24.254 26.104C24.254 26.0213 24.3468 25.9551 24.4637 25.9551C24.5847 25.9427 24.6895 26.0089 24.6895 26.104ZM23.4355 25.9179C23.4073 26.0006 23.4879 26.0957 23.6089 26.1205C23.7137 26.1619 23.8347 26.1205 23.8589 26.0378C23.8831 25.9551 23.8065 25.86 23.6855 25.8228C23.5806 25.7938 23.4637 25.8352 23.4355 25.9179ZM25.2177 25.8476C25.1008 25.8765 25.0202 25.9551 25.0323 26.0502C25.0444 26.1329 25.1492 26.1867 25.2702 26.1577C25.3871 26.1288 25.4677 26.0502 25.4556 25.9675C25.4435 25.8889 25.3347 25.8352 25.2177 25.8476ZM27.871 10C22.2782 10 18 14.3548 18 20.0908C18 24.6772 20.8145 28.6019 24.8347 29.9832C25.3508 30.0783 25.5323 29.7516 25.5323 29.4827C25.5323 29.2263 25.5202 27.812 25.5202 26.9435C25.5202 26.9435 22.6976 27.5638 22.1048 25.7111C22.1048 25.7111 21.6452 24.5076 20.9839 24.1975C20.9839 24.1975 20.0605 23.5482 21.0484 23.5606C21.0484 23.5606 22.0524 23.6433 22.6048 24.6276C23.4879 26.2239 24.9677 25.7649 25.5444 25.4919C25.6371 24.8302 25.8992 24.3712 26.1895 24.0982C23.9355 23.8418 21.6613 23.5068 21.6613 19.5284C21.6613 18.3911 21.9677 17.8204 22.6129 17.0925C22.5081 16.8237 22.1653 15.7154 22.7177 14.2845C23.5605 14.0157 25.5 15.4011 25.5 15.4011C26.3065 15.1695 27.1734 15.0496 28.0323 15.0496C28.8911 15.0496 29.7581 15.1695 30.5645 15.4011C30.5645 15.4011 32.504 14.0115 33.3468 14.2845C33.8992 15.7195 33.5565 16.8237 33.4516 17.0925C34.0968 17.8245 34.4919 18.3952 34.4919 19.5284C34.4919 23.5192 32.1169 23.8377 29.8629 24.0982C30.2339 24.4249 30.5484 25.0453 30.5484 26.0171C30.5484 27.4108 30.5363 29.1354 30.5363 29.4745C30.5363 29.7433 30.7218 30.07 31.2339 29.9749C35.2661 28.6019 38 24.6772 38 20.0908C38 14.3548 33.4637 10 27.871 10ZM21.9194 24.2636C21.8669 24.305 21.879 24.4001 21.9476 24.4787C22.0121 24.5449 22.1048 24.5738 22.1573 24.52C22.2097 24.4787 22.1976 24.3836 22.129 24.305C22.0645 24.2388 21.9718 24.2099 21.9194 24.2636ZM21.4839 23.9287C21.4556 23.9824 21.496 24.0486 21.5766 24.0899C21.6411 24.1313 21.7218 24.1189 21.75 24.061C21.7782 24.0072 21.7379 23.9411 21.6573 23.8997C21.5766 23.8749 21.5121 23.8873 21.4839 23.9287ZM22.7903 25.4009C22.7258 25.4547 22.75 25.5788 22.8427 25.6573C22.9355 25.7524 23.0524 25.7649 23.1048 25.6987C23.1573 25.6449 23.1331 25.5209 23.0524 25.4423C22.9637 25.3472 22.8427 25.3348 22.7903 25.4009ZM22.3306 24.793C22.2661 24.8343 22.2661 24.9419 22.3306 25.037C22.3952 25.1321 22.504 25.1735 22.5565 25.1321C22.621 25.0783 22.621 24.9708 22.5565 24.8757C22.5 24.7806 22.3952 24.7392 22.3306 24.793Z" fill="#008CE3"/>
<rect x="68" width="56" height="40" rx="10" fill="#E9EFF5" fill-opacity="0.43"/>
<path d="M101.801 11H104.867L98.136 18.6384L106 29H99.8287L94.997 22.7033L89.4655 29H86.3999L93.5308 20.8303L86 11H92.3246L96.6898 16.752L101.801 11ZM100.728 27.2066H102.428L91.4315 12.7269H89.6055L100.728 27.2066Z" fill="#008CE3"/>
<rect x="136" width="56" height="40" rx="10" fill="#E9EFF5" fill-opacity="0.43"/>
<path d="M171.653 12.5202C171.646 12.5075 171.636 12.4975 171.624 12.4921C170.198 11.7893 168.692 11.2882 167.146 11.0012C167.132 10.9984 167.117 11.0004 167.104 11.007C167.092 11.0136 167.081 11.0243 167.074 11.0378C166.869 11.4373 166.683 11.8476 166.516 12.2673C164.85 11.9955 163.154 11.9955 161.487 12.2673C161.319 11.8466 161.13 11.4361 160.921 11.0378C160.913 11.0246 160.903 11.0141 160.89 11.0076C160.877 11.0011 160.863 10.9989 160.849 11.0012C159.302 11.2876 157.797 11.7888 156.371 12.4921C156.358 12.4977 156.348 12.5072 156.341 12.5193C153.489 17.0932 152.708 21.5546 153.091 25.9607C153.092 25.9715 153.095 25.982 153.1 25.9915C153.105 26.001 153.112 26.0093 153.12 26.016C154.78 27.3365 156.638 28.3444 158.613 28.9968C158.627 29.0013 158.642 29.0011 158.656 28.9962C158.669 28.9913 158.681 28.9821 158.69 28.9696C159.114 28.3498 159.49 27.6934 159.814 27.0072C159.818 26.9978 159.821 26.9875 159.821 26.9769C159.822 26.9664 159.82 26.9558 159.817 26.946C159.813 26.9362 159.808 26.9273 159.801 26.9199C159.794 26.9126 159.785 26.9069 159.776 26.9032C159.183 26.6597 158.609 26.3661 158.06 26.0252C158.05 26.0189 158.041 26.0101 158.035 25.9995C158.029 25.9888 158.026 25.9768 158.025 25.9644C158.024 25.952 158.027 25.9396 158.031 25.9283C158.036 25.917 158.044 25.9071 158.053 25.8996C158.168 25.8068 158.284 25.7103 158.394 25.6129C158.403 25.6042 158.415 25.5987 158.428 25.5968C158.44 25.595 158.453 25.597 158.465 25.6026C162.065 27.3671 165.963 27.3671 169.521 25.6026C169.532 25.5966 169.545 25.5944 169.558 25.596C169.571 25.5977 169.583 25.6032 169.593 25.6119C169.703 25.7094 169.818 25.8068 169.935 25.8996C169.944 25.9071 169.951 25.9168 169.956 25.9281C169.961 25.9393 169.963 25.9517 169.963 25.9641C169.962 25.9766 169.959 25.9886 169.953 25.9993C169.947 26.0099 169.938 26.0188 169.928 26.0252C169.38 26.369 168.806 26.6624 168.212 26.9023C168.202 26.9061 168.194 26.9119 168.187 26.9194C168.18 26.9269 168.174 26.9359 168.171 26.9458C168.167 26.9557 168.166 26.9663 168.166 26.9769C168.167 26.9874 168.17 26.9978 168.174 27.0072C168.503 27.6896 168.879 28.3451 169.297 28.9685C169.306 28.9813 169.318 28.9909 169.331 28.996C169.345 29.001 169.36 29.0013 169.374 28.9967C171.353 28.3465 173.214 27.3385 174.877 26.016C174.885 26.0096 174.891 26.0015 174.896 25.9921C174.901 25.9828 174.904 25.9724 174.905 25.9616C175.364 20.8677 174.137 16.4428 171.653 12.5202ZM160.352 23.2778C159.268 23.2778 158.375 22.2096 158.375 20.8977C158.375 19.5858 159.25 18.5175 160.352 18.5175C161.462 18.5175 162.346 19.595 162.329 20.8976C162.329 22.2096 161.453 23.2778 160.352 23.2778ZM167.662 23.2778C166.578 23.2778 165.685 22.2096 165.685 20.8977C165.685 19.5858 166.561 18.5175 167.662 18.5175C168.772 18.5175 169.656 19.595 169.639 20.8976C169.639 22.2096 168.772 23.2778 167.662 23.2778Z" fill="#008CE3"/>
<rect x="204" width="56" height="40" rx="10" fill="#E9EFF5" fill-opacity="0.43"/>
<path d="M241.826 13.2208L238.844 27.2875C238.619 28.2803 238.032 28.5273 237.198 28.0597L232.653 24.7107L230.46 26.8198C230.218 27.0625 230.015 27.2655 229.547 27.2655L229.873 22.6368L238.297 15.0255C238.663 14.699 238.217 14.5181 237.727 14.8446L227.314 21.4013L222.831 19.9982C221.856 19.6938 221.839 19.0231 223.034 18.5554L240.569 11.8001C241.381 11.4956 242.091 11.9809 241.826 13.2208Z" fill="#20A0E1"/>
</svg>
